<?xml version="1.0" encoding="utf-8"?>
<!-- Generator: Adobe Illustrator 28.0.0, SVG Export Plug-In . SVG Version: 6.00 Build 0)  -->
<svg version="1.1" id="Layer_1" xmlns="http://www.w3.org/2000/svg" xmlns:xlink="http://www.w3.org/1999/xlink" x="0px" y="0px"
	 viewBox="0 0 21 21" style="enable-background:new 0 0 21 21;" xml:space="preserve">
<path d="M10.2,18.6c1.2,0,2.3-0.4,3.2-1.3s1.3-1.9,1.3-3.2s-0.4-2.3-1.3-3.2s-1.9-1.3-3.2-1.3S7.9,10.1,7,10.9s-1.3,1.9-1.3,3.2
	s0.4,2.3,1.3,3.2S9,18.6,10.2,18.6z M7.3,8.3C7.6,8.1,8,8,8.4,7.9c0.4-0.1,0.8-0.2,1.1-0.2L7,2.6H4.5L7.3,8.3z M13.2,8.3L16,2.6
	h-2.5l-2.1,4.2l0.5,0.9C12.1,7.9,12.3,8,12.5,8C12.7,8.1,12.9,8.2,13.2,8.3z M4.6,17.4c-0.3-0.5-0.5-1-0.7-1.6s-0.2-1.1-0.2-1.7
	s0.1-1.2,0.2-1.7s0.4-1.1,0.7-1.6c-0.7,0.2-1.3,0.6-1.7,1.2s-0.7,1.3-0.7,2.1s0.2,1.5,0.7,2.1C3.4,16.8,3.9,17.2,4.6,17.4z
	 M15.8,17.4c0.7-0.2,1.3-0.6,1.7-1.2c0.4-0.6,0.7-1.3,0.7-2.1s-0.2-1.5-0.7-2.1c-0.5-0.6-1-1-1.7-1.2c0.3,0.5,0.5,1,0.7,1.6
	s0.2,1.1,0.2,1.7s-0.1,1.2-0.2,1.7S16.1,16.9,15.8,17.4z M10.2,20.6c-0.7,0-1.3-0.1-1.9-0.3c-0.6-0.2-1.2-0.5-1.7-0.8
	c-0.2,0-0.3,0.1-0.4,0.1c-0.2,0-0.3,0-0.5,0c-1.5,0-2.8-0.5-3.9-1.6c-1.1-1.1-1.6-2.4-1.6-3.9c0-1.4,0.5-2.7,1.4-3.7
	s2.2-1.6,3.6-1.7l-4-8.1h7l2,4l2-4h7l-4,8c1.4,0.1,2.6,0.7,3.6,1.8s1.4,2.3,1.4,3.7c0,1.5-0.5,2.8-1.6,3.9c-1.1,1.1-2.4,1.6-3.9,1.6
	c-0.2,0-0.3,0-0.5,0c-0.2,0-0.3,0-0.5-0.1c-0.5,0.3-1.1,0.6-1.7,0.8C11.5,20.5,10.9,20.6,10.2,20.6z M7.3,8.3L4.5,2.6L7.3,8.3z
	 M13.2,8.3L16,2.6L13.2,8.3z M8.4,16.9l0.7-2.3l-1.8-1.3h2.3l0.7-2.4l0.7,2.4h2.3l-1.9,1.3l0.7,2.3l-1.8-1.4L8.4,16.9z"/>
</svg>
