<?xml version="1.0" encoding="utf-8"?>
<!-- Generator: Adobe Illustrator 28.0.0, SVG Export Plug-In . SVG Version: 6.00 Build 0)  -->
<svg version="1.1" id="Layer_1" xmlns="http://www.w3.org/2000/svg" xmlns:xlink="http://www.w3.org/1999/xlink" x="0px" y="0px"
	 viewBox="0 0 23 21" style="enable-background:new 0 0 23 21;" xml:space="preserve">
<path d="M16,11.2l-4.1-4.1c-0.5-0.5-1-1.1-1.3-1.7S10,4.3,10,3.5c0-0.9,0.3-1.7,1-2.3s1.4-1,2.3-1c0.5,0,1,0.1,1.5,0.3
	s0.9,0.5,1.2,0.9c0.3-0.4,0.7-0.7,1.2-0.9s1-0.3,1.5-0.3c0.9,0,1.7,0.3,2.3,1c0.6,0.6,1,1.4,1,2.3c0,0.7-0.2,1.4-0.5,2
	s-0.8,1.2-1.3,1.7L16,11.2z M16,8.4l2.7-2.7c0.3-0.3,0.6-0.7,0.9-1C19.9,4.4,20,4,20,3.5c0-0.4-0.1-0.7-0.4-0.9s-0.6-0.4-0.9-0.4
	c-0.2,0-0.5,0-0.7,0.1c-0.2,0.1-0.4,0.2-0.5,0.4L16,4.6l-1.5-1.8c-0.1-0.2-0.3-0.3-0.5-0.4c-0.2-0.1-0.4-0.1-0.7-0.1
	c-0.4,0-0.7,0.1-0.9,0.4S12,3.2,12,3.5c0,0.5,0.1,0.9,0.4,1.2c0.3,0.4,0.6,0.7,0.9,1L16,8.4z M7,16.8l6.9,1.9l5.9-1.9
	c-0.1-0.1-0.2-0.3-0.4-0.4s-0.3-0.2-0.5-0.2h-5.1c-0.4,0-0.8,0-1.1,0c-0.3,0-0.5-0.1-0.8-0.2l-2.3-0.8l0.5-2l2,0.7
	c0.3,0.1,0.6,0.2,1,0.2c0.4,0.1,0.9,0.1,1.7,0.1c0-0.2-0.1-0.4-0.2-0.5c-0.1-0.2-0.2-0.3-0.4-0.3l-5.8-2.1H7V16.8z M1,20.2v-11h7.6
	c0.1,0,0.2,0,0.3,0c0.1,0,0.2,0.1,0.3,0.1l5.9,2.2c0.6,0.2,1,0.6,1.3,1.1s0.5,1,0.5,1.6h2c0.8,0,1.5,0.3,2.1,0.8s0.9,1.3,0.9,2.2v1
	l-8,2.5l-7-2v1.5H1z M3,18.2h2v-7H3V18.2z"/>
</svg>
